<mxfile host="app.diagrams.net" modified="2022-12-09T06:55:54.775Z" agent="5.0 (Windows NT 10.0; Win64; x64) AppleWebKit/537.36 (KHTML, like Gecko) Chrome/108.0.0.0 Safari/537.36 Edg/108.0.1462.42" etag="CHxPEut1V9w7clSTMx-r" version="20.6.0" type="github">
  <diagram id="R2lEEEUBdFMjLlhIrx00" name="Page-1">
    <mxGraphModel dx="346" dy="1763" grid="1" gridSize="10" guides="1" tooltips="1" connect="1" arrows="1" fold="1" page="1" pageScale="1" pageWidth="850" pageHeight="1100" math="0" shadow="0" extFonts="Permanent Marker^https://fonts.googleapis.com/css?family=Permanent+Marker">
      <root>
        <mxCell id="0" />
        <mxCell id="1" parent="0" />
        <mxCell id="LmGqoX9NCWXbvXtPITuy-302" style="edgeStyle=orthogonalEdgeStyle;rounded=0;orthogonalLoop=1;jettySize=auto;html=1;exitX=1;exitY=0.5;exitDx=0;exitDy=0;" edge="1" parent="1" source="LmGqoX9NCWXbvXtPITuy-300" target="LmGqoX9NCWXbvXtPITuy-301">
          <mxGeometry relative="1" as="geometry" />
        </mxCell>
        <mxCell id="LmGqoX9NCWXbvXtPITuy-300" value="pagelinks" style="ellipse;whiteSpace=wrap;html=1;" vertex="1" parent="1">
          <mxGeometry x="1260" y="30" width="120" height="80" as="geometry" />
        </mxCell>
        <mxCell id="LmGqoX9NCWXbvXtPITuy-304" style="edgeStyle=orthogonalEdgeStyle;rounded=0;orthogonalLoop=1;jettySize=auto;html=1;exitX=1;exitY=0.5;exitDx=0;exitDy=0;entryX=0;entryY=0.5;entryDx=0;entryDy=0;" edge="1" parent="1" source="LmGqoX9NCWXbvXtPITuy-301" target="LmGqoX9NCWXbvXtPITuy-303">
          <mxGeometry relative="1" as="geometry">
            <Array as="points">
              <mxPoint x="1940" y="70" />
              <mxPoint x="1940" y="500" />
            </Array>
          </mxGeometry>
        </mxCell>
        <mxCell id="LmGqoX9NCWXbvXtPITuy-306" style="edgeStyle=orthogonalEdgeStyle;rounded=0;orthogonalLoop=1;jettySize=auto;html=1;exitX=1;exitY=0.5;exitDx=0;exitDy=0;entryX=0;entryY=0;entryDx=0;entryDy=0;" edge="1" parent="1" source="LmGqoX9NCWXbvXtPITuy-301" target="LmGqoX9NCWXbvXtPITuy-305">
          <mxGeometry relative="1" as="geometry">
            <Array as="points">
              <mxPoint x="1640" y="40" />
              <mxPoint x="2023" y="40" />
            </Array>
          </mxGeometry>
        </mxCell>
        <mxCell id="LmGqoX9NCWXbvXtPITuy-308" style="edgeStyle=orthogonalEdgeStyle;rounded=0;orthogonalLoop=1;jettySize=auto;html=1;exitX=1;exitY=0.5;exitDx=0;exitDy=0;entryX=0;entryY=0.5;entryDx=0;entryDy=0;" edge="1" parent="1" source="LmGqoX9NCWXbvXtPITuy-301" target="LmGqoX9NCWXbvXtPITuy-307">
          <mxGeometry relative="1" as="geometry">
            <Array as="points">
              <mxPoint x="1720" y="70" />
              <mxPoint x="1720" y="320" />
            </Array>
          </mxGeometry>
        </mxCell>
        <mxCell id="LmGqoX9NCWXbvXtPITuy-301" value="page" style="ellipse;whiteSpace=wrap;html=1;" vertex="1" parent="1">
          <mxGeometry x="1520" y="30" width="120" height="80" as="geometry" />
        </mxCell>
        <mxCell id="LmGqoX9NCWXbvXtPITuy-303" value="editors" style="ellipse;whiteSpace=wrap;html=1;" vertex="1" parent="1">
          <mxGeometry x="2040" y="460" width="120" height="80" as="geometry" />
        </mxCell>
        <mxCell id="LmGqoX9NCWXbvXtPITuy-305" value="locales" style="ellipse;whiteSpace=wrap;html=1;" vertex="1" parent="1">
          <mxGeometry x="2005" y="60" width="120" height="80" as="geometry" />
        </mxCell>
        <mxCell id="LmGqoX9NCWXbvXtPITuy-310" style="edgeStyle=orthogonalEdgeStyle;rounded=0;orthogonalLoop=1;jettySize=auto;html=1;exitX=1;exitY=0.5;exitDx=0;exitDy=0;" edge="1" parent="1" source="LmGqoX9NCWXbvXtPITuy-307" target="LmGqoX9NCWXbvXtPITuy-309">
          <mxGeometry relative="1" as="geometry" />
        </mxCell>
        <mxCell id="LmGqoX9NCWXbvXtPITuy-311" style="edgeStyle=orthogonalEdgeStyle;rounded=0;orthogonalLoop=1;jettySize=auto;html=1;exitX=1;exitY=0;exitDx=0;exitDy=0;entryX=0.5;entryY=1;entryDx=0;entryDy=0;" edge="1" parent="1" source="LmGqoX9NCWXbvXtPITuy-307" target="LmGqoX9NCWXbvXtPITuy-305">
          <mxGeometry relative="1" as="geometry">
            <Array as="points">
              <mxPoint x="1970" y="292" />
              <mxPoint x="1970" y="140" />
            </Array>
          </mxGeometry>
        </mxCell>
        <mxCell id="LmGqoX9NCWXbvXtPITuy-312" style="edgeStyle=orthogonalEdgeStyle;rounded=0;orthogonalLoop=1;jettySize=auto;html=1;exitX=1;exitY=1;exitDx=0;exitDy=0;entryX=0.5;entryY=0;entryDx=0;entryDy=0;" edge="1" parent="1" source="LmGqoX9NCWXbvXtPITuy-307" target="LmGqoX9NCWXbvXtPITuy-303">
          <mxGeometry relative="1" as="geometry">
            <Array as="points">
              <mxPoint x="1970" y="348" />
              <mxPoint x="1970" y="460" />
            </Array>
          </mxGeometry>
        </mxCell>
        <mxCell id="LmGqoX9NCWXbvXtPITuy-307" value="users" style="ellipse;whiteSpace=wrap;html=1;" vertex="1" parent="1">
          <mxGeometry x="1800" y="280" width="120" height="80" as="geometry" />
        </mxCell>
        <mxCell id="LmGqoX9NCWXbvXtPITuy-309" value="authentication" style="ellipse;whiteSpace=wrap;html=1;" vertex="1" parent="1">
          <mxGeometry x="2005" y="280" width="120" height="80" as="geometry" />
        </mxCell>
        <mxCell id="LmGqoX9NCWXbvXtPITuy-315" style="edgeStyle=orthogonalEdgeStyle;rounded=0;orthogonalLoop=1;jettySize=auto;html=1;exitX=1;exitY=0.5;exitDx=0;exitDy=0;" edge="1" parent="1" source="LmGqoX9NCWXbvXtPITuy-313" target="LmGqoX9NCWXbvXtPITuy-314">
          <mxGeometry relative="1" as="geometry" />
        </mxCell>
        <mxCell id="LmGqoX9NCWXbvXtPITuy-317" style="edgeStyle=orthogonalEdgeStyle;rounded=0;orthogonalLoop=1;jettySize=auto;html=1;exitX=1;exitY=0.5;exitDx=0;exitDy=0;" edge="1" parent="1" source="LmGqoX9NCWXbvXtPITuy-313" target="LmGqoX9NCWXbvXtPITuy-316">
          <mxGeometry relative="1" as="geometry">
            <Array as="points">
              <mxPoint x="1390" y="270" />
              <mxPoint x="1390" y="440" />
            </Array>
          </mxGeometry>
        </mxCell>
        <mxCell id="LmGqoX9NCWXbvXtPITuy-313" value="pageHistoryTags" style="ellipse;whiteSpace=wrap;html=1;" vertex="1" parent="1">
          <mxGeometry x="1180" y="230" width="120" height="80" as="geometry" />
        </mxCell>
        <mxCell id="LmGqoX9NCWXbvXtPITuy-318" style="edgeStyle=orthogonalEdgeStyle;rounded=0;orthogonalLoop=1;jettySize=auto;html=1;exitX=1;exitY=0.5;exitDx=0;exitDy=0;entryX=0;entryY=0.5;entryDx=0;entryDy=0;" edge="1" parent="1" source="LmGqoX9NCWXbvXtPITuy-314" target="LmGqoX9NCWXbvXtPITuy-303">
          <mxGeometry relative="1" as="geometry">
            <Array as="points">
              <mxPoint x="1550" y="280" />
              <mxPoint x="1640" y="280" />
              <mxPoint x="1640" y="530" />
              <mxPoint x="2040" y="530" />
            </Array>
          </mxGeometry>
        </mxCell>
        <mxCell id="LmGqoX9NCWXbvXtPITuy-319" style="edgeStyle=orthogonalEdgeStyle;rounded=0;orthogonalLoop=1;jettySize=auto;html=1;exitX=1;exitY=0.5;exitDx=0;exitDy=0;entryX=0;entryY=0.5;entryDx=0;entryDy=0;" edge="1" parent="1" source="LmGqoX9NCWXbvXtPITuy-314" target="LmGqoX9NCWXbvXtPITuy-305">
          <mxGeometry relative="1" as="geometry">
            <Array as="points">
              <mxPoint x="1550" y="210" />
              <mxPoint x="1700" y="210" />
              <mxPoint x="1700" y="100" />
            </Array>
          </mxGeometry>
        </mxCell>
        <mxCell id="LmGqoX9NCWXbvXtPITuy-320" style="edgeStyle=orthogonalEdgeStyle;rounded=0;orthogonalLoop=1;jettySize=auto;html=1;exitX=1;exitY=0.5;exitDx=0;exitDy=0;" edge="1" parent="1" source="LmGqoX9NCWXbvXtPITuy-314">
          <mxGeometry relative="1" as="geometry">
            <mxPoint x="1800" y="320" as="targetPoint" />
            <Array as="points">
              <mxPoint x="1660" y="230" />
              <mxPoint x="1660" y="370" />
              <mxPoint x="1800" y="370" />
            </Array>
          </mxGeometry>
        </mxCell>
        <mxCell id="LmGqoX9NCWXbvXtPITuy-314" value="pageHistory" style="ellipse;whiteSpace=wrap;html=1;" vertex="1" parent="1">
          <mxGeometry x="1430" y="190" width="120" height="80" as="geometry" />
        </mxCell>
        <mxCell id="LmGqoX9NCWXbvXtPITuy-316" value="tags" style="ellipse;whiteSpace=wrap;html=1;" vertex="1" parent="1">
          <mxGeometry x="1490" y="400" width="120" height="80" as="geometry" />
        </mxCell>
        <mxCell id="LmGqoX9NCWXbvXtPITuy-323" style="edgeStyle=orthogonalEdgeStyle;rounded=0;orthogonalLoop=1;jettySize=auto;html=1;exitX=1;exitY=0.5;exitDx=0;exitDy=0;" edge="1" parent="1" source="LmGqoX9NCWXbvXtPITuy-321" target="LmGqoX9NCWXbvXtPITuy-322">
          <mxGeometry relative="1" as="geometry" />
        </mxCell>
        <mxCell id="LmGqoX9NCWXbvXtPITuy-324" style="edgeStyle=orthogonalEdgeStyle;rounded=0;orthogonalLoop=1;jettySize=auto;html=1;exitX=1;exitY=0.5;exitDx=0;exitDy=0;entryX=0;entryY=1;entryDx=0;entryDy=0;" edge="1" parent="1" source="LmGqoX9NCWXbvXtPITuy-321" target="LmGqoX9NCWXbvXtPITuy-307">
          <mxGeometry relative="1" as="geometry" />
        </mxCell>
        <mxCell id="LmGqoX9NCWXbvXtPITuy-321" value="assets" style="ellipse;whiteSpace=wrap;html=1;" vertex="1" parent="1">
          <mxGeometry x="1260" y="640" width="120" height="80" as="geometry" />
        </mxCell>
        <mxCell id="LmGqoX9NCWXbvXtPITuy-322" value="assetFolders" style="ellipse;whiteSpace=wrap;html=1;" vertex="1" parent="1">
          <mxGeometry x="1430" y="570" width="120" height="80" as="geometry" />
        </mxCell>
        <mxCell id="LmGqoX9NCWXbvXtPITuy-327" style="edgeStyle=orthogonalEdgeStyle;rounded=0;orthogonalLoop=1;jettySize=auto;html=1;exitX=1;exitY=0.5;exitDx=0;exitDy=0;" edge="1" parent="1" source="LmGqoX9NCWXbvXtPITuy-325" target="LmGqoX9NCWXbvXtPITuy-326">
          <mxGeometry relative="1" as="geometry" />
        </mxCell>
        <mxCell id="LmGqoX9NCWXbvXtPITuy-328" style="edgeStyle=orthogonalEdgeStyle;rounded=0;orthogonalLoop=1;jettySize=auto;html=1;exitX=1;exitY=0.5;exitDx=0;exitDy=0;entryX=0;entryY=1;entryDx=0;entryDy=0;" edge="1" parent="1" source="LmGqoX9NCWXbvXtPITuy-325" target="LmGqoX9NCWXbvXtPITuy-307">
          <mxGeometry relative="1" as="geometry" />
        </mxCell>
        <mxCell id="LmGqoX9NCWXbvXtPITuy-325" value="userGroups" style="ellipse;whiteSpace=wrap;html=1;" vertex="1" parent="1">
          <mxGeometry x="1260" y="760" width="120" height="80" as="geometry" />
        </mxCell>
        <mxCell id="LmGqoX9NCWXbvXtPITuy-326" value="groups" style="ellipse;whiteSpace=wrap;html=1;" vertex="1" parent="1">
          <mxGeometry x="1450" y="830" width="120" height="80" as="geometry" />
        </mxCell>
        <mxCell id="LmGqoX9NCWXbvXtPITuy-330" style="edgeStyle=orthogonalEdgeStyle;rounded=0;orthogonalLoop=1;jettySize=auto;html=1;exitX=0.5;exitY=1;exitDx=0;exitDy=0;entryX=0;entryY=0;entryDx=0;entryDy=0;" edge="1" parent="1" source="LmGqoX9NCWXbvXtPITuy-329" target="LmGqoX9NCWXbvXtPITuy-307">
          <mxGeometry relative="1" as="geometry" />
        </mxCell>
        <mxCell id="LmGqoX9NCWXbvXtPITuy-329" value="userKeys" style="ellipse;whiteSpace=wrap;html=1;" vertex="1" parent="1">
          <mxGeometry x="1730" y="150" width="120" height="80" as="geometry" />
        </mxCell>
        <mxCell id="LmGqoX9NCWXbvXtPITuy-332" style="edgeStyle=orthogonalEdgeStyle;rounded=0;orthogonalLoop=1;jettySize=auto;html=1;exitX=1;exitY=0.5;exitDx=0;exitDy=0;entryX=0;entryY=1;entryDx=0;entryDy=0;" edge="1" parent="1" source="LmGqoX9NCWXbvXtPITuy-331" target="LmGqoX9NCWXbvXtPITuy-301">
          <mxGeometry relative="1" as="geometry">
            <Array as="points">
              <mxPoint x="1330" y="120" />
              <mxPoint x="1538" y="120" />
            </Array>
          </mxGeometry>
        </mxCell>
        <mxCell id="LmGqoX9NCWXbvXtPITuy-333" style="edgeStyle=orthogonalEdgeStyle;rounded=0;orthogonalLoop=1;jettySize=auto;html=1;exitX=1;exitY=0.5;exitDx=0;exitDy=0;entryX=0;entryY=1;entryDx=0;entryDy=0;" edge="1" parent="1" source="LmGqoX9NCWXbvXtPITuy-331" target="LmGqoX9NCWXbvXtPITuy-305">
          <mxGeometry relative="1" as="geometry" />
        </mxCell>
        <mxCell id="LmGqoX9NCWXbvXtPITuy-331" value="pageTrees" style="ellipse;whiteSpace=wrap;html=1;" vertex="1" parent="1">
          <mxGeometry x="1210" y="130" width="120" height="80" as="geometry" />
        </mxCell>
        <mxCell id="LmGqoX9NCWXbvXtPITuy-335" style="edgeStyle=orthogonalEdgeStyle;rounded=0;orthogonalLoop=1;jettySize=auto;html=1;exitX=0.5;exitY=1;exitDx=0;exitDy=0;entryX=0;entryY=0;entryDx=0;entryDy=0;" edge="1" parent="1" source="LmGqoX9NCWXbvXtPITuy-334" target="LmGqoX9NCWXbvXtPITuy-301">
          <mxGeometry relative="1" as="geometry" />
        </mxCell>
        <mxCell id="LmGqoX9NCWXbvXtPITuy-336" style="edgeStyle=orthogonalEdgeStyle;rounded=0;orthogonalLoop=1;jettySize=auto;html=1;exitX=1;exitY=0.5;exitDx=0;exitDy=0;" edge="1" parent="1" source="LmGqoX9NCWXbvXtPITuy-334" target="LmGqoX9NCWXbvXtPITuy-307">
          <mxGeometry relative="1" as="geometry" />
        </mxCell>
        <mxCell id="LmGqoX9NCWXbvXtPITuy-334" value="commands" style="ellipse;whiteSpace=wrap;html=1;" vertex="1" parent="1">
          <mxGeometry x="1380" y="-90" width="120" height="80" as="geometry" />
        </mxCell>
        <mxCell id="LmGqoX9NCWXbvXtPITuy-338" style="edgeStyle=orthogonalEdgeStyle;rounded=0;orthogonalLoop=1;jettySize=auto;html=1;exitX=1;exitY=0.5;exitDx=0;exitDy=0;entryX=0;entryY=1;entryDx=0;entryDy=0;" edge="1" parent="1" source="LmGqoX9NCWXbvXtPITuy-337" target="LmGqoX9NCWXbvXtPITuy-316">
          <mxGeometry relative="1" as="geometry">
            <Array as="points">
              <mxPoint x="1330" y="468" />
            </Array>
          </mxGeometry>
        </mxCell>
        <mxCell id="LmGqoX9NCWXbvXtPITuy-339" style="edgeStyle=orthogonalEdgeStyle;rounded=0;orthogonalLoop=1;jettySize=auto;html=1;exitX=1;exitY=0;exitDx=0;exitDy=0;entryX=0.5;entryY=1;entryDx=0;entryDy=0;" edge="1" parent="1" source="LmGqoX9NCWXbvXtPITuy-337" target="LmGqoX9NCWXbvXtPITuy-301">
          <mxGeometry relative="1" as="geometry" />
        </mxCell>
        <mxCell id="LmGqoX9NCWXbvXtPITuy-337" value="pageTags" style="ellipse;whiteSpace=wrap;html=1;" vertex="1" parent="1">
          <mxGeometry x="1210" y="350" width="120" height="80" as="geometry" />
        </mxCell>
      </root>
    </mxGraphModel>
  </diagram>
</mxfile>
